<svg width="47" height="36" viewBox="0 0 47 36" fill="none" xmlns="http://www.w3.org/2000/svg">
<path d="M24.9448 15.0581C24.9448 16.4408 24.0995 17.2363 22.609 17.2363H20.6515V12.8813H22.6177C24.0995 12.8813 24.9448 13.6681 24.9448 15.0581ZM28.7713 20.0886C28.7713 20.7553 29.3512 21.1892 30.2618 21.1892C31.4218 21.1892 32.2918 20.4588 32.2918 19.429V18.81L30.3981 18.93C29.3266 19.0023 28.7713 19.3957 28.7713 20.0871V20.0886ZM47.0001 3.85745V32.1425C46.9997 33.1655 46.5922 34.1464 45.867 34.8698C45.1419 35.5931 44.1586 35.9996 43.1331 36H4.46713C3.44164 35.9996 2.45827 35.5931 1.73315 34.8698C1.00802 34.1464 0.600482 33.1655 0.600098 32.1425V3.85745C0.600482 2.83451 1.00802 1.85357 1.73315 1.13024C2.45827 0.406915 3.44164 0.00038334 4.46713 0H43.1331C44.1586 0.00038334 45.1419 0.406915 45.867 1.13024C46.5922 1.85357 46.9997 2.83451 47.0001 3.85745ZM10.8962 13.3543C11.5734 13.4107 12.249 13.0173 12.6768 12.5183C13.0958 12.0034 13.3698 11.3135 13.2974 10.6134C12.7014 10.638 11.9605 11.0068 11.5328 11.5217C11.1456 11.9643 10.8165 12.6788 10.8962 13.3543ZM15.7782 19.3408C15.7623 19.3249 14.1992 18.7304 14.1833 16.9297C14.1673 15.4269 15.4157 14.7037 15.4723 14.6632C14.7633 13.619 13.6671 13.5061 13.2887 13.4816C12.3056 13.4252 11.4675 14.0355 11.0006 14.0355C10.525 14.0355 9.81601 13.5047 9.04318 13.5221C8.53862 13.5354 8.04637 13.6804 7.61544 13.9425C7.1845 14.2047 6.82991 14.5748 6.58696 15.0162C5.53139 16.8328 6.31292 19.5158 7.33659 20.994C7.83537 21.7244 8.44 22.5286 9.23023 22.4967C9.9784 22.4649 10.2771 22.0151 11.179 22.0151C12.0895 22.0151 12.3476 22.4967 13.1364 22.4895C13.9585 22.4736 14.466 21.7591 14.9735 21.0272C15.5288 20.1912 15.7623 19.3885 15.7797 19.3393L15.7782 19.3408ZM26.6848 15.0509C26.6848 12.9131 25.1942 11.4509 23.0671 11.4509H18.9435V22.4114H20.6515V18.6668H23.012C25.171 18.6668 26.6848 17.1886 26.6848 15.0509ZM33.9346 16.9543C33.9346 15.372 32.6615 14.3508 30.7128 14.3508C28.9003 14.3508 27.5635 15.3879 27.5142 16.801H29.0526C29.1816 16.1255 29.8094 15.6844 30.6635 15.6844C31.7103 15.6844 32.2903 16.166 32.2903 17.0671V17.6702L30.1632 17.799C28.1811 17.919 27.1111 18.7319 27.1111 20.1377C27.1111 21.5595 28.2145 22.4996 29.8007 22.4996C30.8723 22.4996 31.8626 21.9616 32.3135 21.101H32.3454V22.4186H33.9244V16.9543H33.9346ZM42.1674 14.455H40.4362L38.4309 20.9318H38.399L36.3937 14.455H34.5972L37.4884 22.4346L37.3361 22.9162C37.0781 23.7363 36.6518 24.0574 35.8949 24.0574C35.7279 24.0543 35.5611 24.0461 35.3947 24.0328V25.3504C35.4918 25.3822 35.9181 25.3909 36.0471 25.3909C37.7146 25.3909 38.4961 24.756 39.1805 22.8352L42.1674 14.455Z" fill="white" fill-opacity="0.5"/>
</svg>
