<svg width="34" height="34" viewBox="0 0 34 34" fill="none" xmlns="http://www.w3.org/2000/svg">
<path d="M13.6956 24.212V13.1627H12.3505C11.3871 13.6633 10.456 14.2209 9.5625 14.8323V16.272C10.3594 15.7396 11.6216 14.9877 12.2357 14.6625H12.2612V24.212H13.6956ZM16.2201 21.5087C16.32 22.8345 17.4824 24.4213 19.839 24.4213C22.5122 24.4213 24.089 22.2131 24.089 18.474C24.089 14.4677 22.4294 12.9473 19.9389 12.9473C17.9711 12.9473 16.1202 14.3393 16.1202 16.6946C16.1202 19.0975 17.8712 20.3611 19.6817 20.3611C21.267 20.3611 22.2955 19.5823 22.6206 18.7247H22.678C22.6695 21.4507 21.6984 23.2074 19.9049 23.2074C18.4939 23.2074 17.7629 22.2752 17.6736 21.5087H16.2201ZM22.4952 16.7091C22.4952 18.1509 21.3074 19.1535 19.9792 19.1535C18.7021 19.1535 17.5482 18.3601 17.5482 16.6677C17.5482 14.9628 18.785 14.1612 20.0302 14.1612C21.3754 14.1612 22.4952 14.9856 22.4952 16.7091Z" fill="black"/>
<path fill-rule="evenodd" clip-rule="evenodd" d="M2.125 8.28574V29.0006C2.125 29.55 2.34888 30.0769 2.7474 30.4653C3.14591 30.8538 3.68641 31.0721 4.25 31.0721H29.75C30.3136 31.0721 30.8541 30.8538 31.2526 30.4653C31.6511 30.0769 31.875 29.55 31.875 29.0006V8.28574H2.125ZM4.25 2.07129C3.12283 2.07129 2.04183 2.50778 1.2448 3.28474C0.447767 4.06169 0 5.11547 0 6.21426L0 29.0006C0 30.0994 0.447767 31.1531 1.2448 31.9301C2.04183 32.7071 3.12283 33.1436 4.25 33.1436H29.75C30.8772 33.1436 31.9582 32.7071 32.7552 31.9301C33.5522 31.1531 34 30.0994 34 29.0006V6.21426C34 5.11547 33.5522 4.06169 32.7552 3.28474C31.9582 2.50778 30.8772 2.07129 29.75 2.07129H4.25Z" fill="black"/>
<path fill-rule="evenodd" clip-rule="evenodd" d="M7.4375 0C7.71929 0 7.98954 0.109121 8.1888 0.303357C8.38806 0.497593 8.5 0.761034 8.5 1.03573V2.07145C8.5 2.34614 8.38806 2.60958 8.1888 2.80382C7.98954 2.99806 7.71929 3.10718 7.4375 3.10718C7.15571 3.10718 6.88546 2.99806 6.6862 2.80382C6.48694 2.60958 6.375 2.34614 6.375 2.07145V1.03573C6.375 0.761034 6.48694 0.497593 6.6862 0.303357C6.88546 0.109121 7.15571 0 7.4375 0V0ZM26.5625 0C26.8443 0 27.1145 0.109121 27.3138 0.303357C27.5131 0.497593 27.625 0.761034 27.625 1.03573V2.07145C27.625 2.34614 27.5131 2.60958 27.3138 2.80382C27.1145 2.99806 26.8443 3.10718 26.5625 3.10718C26.2807 3.10718 26.0105 2.99806 25.8112 2.80382C25.6119 2.60958 25.5 2.34614 25.5 2.07145V1.03573C25.5 0.761034 25.6119 0.497593 25.8112 0.303357C26.0105 0.109121 26.2807 0 26.5625 0V0Z" fill="black"/>
</svg>
