<svg width="37" height="14" viewBox="0 0 37 14" fill="none" xmlns="http://www.w3.org/2000/svg">
<path d="M36.6001 2.99985L31.9009 13.4995H30.4474L32.1934 9.82522L29.0997 2.99872H30.6286L32.8673 8.2311H32.8966L35.0644 2.99872L36.6001 2.99985ZM17.0768 6.2466V10.5002H15.5997V0.000597654H19.5079C20.4357 -0.0248334 21.3391 0.299198 22.0392 0.908473C22.7311 1.4766 23.1113 2.27985 23.1001 3.12922C23.1048 3.55667 23.0117 3.97954 22.8278 4.36544C22.6439 4.75134 22.3742 5.09004 22.0392 5.3556C21.3597 5.95297 20.5159 6.2466 19.5079 6.2466H17.0768ZM17.0712 1.29547V4.95735H19.5439C20.0823 4.97665 20.6065 4.78304 21.0031 4.41847C21.3844 4.07872 21.5948 3.61522 21.5948 3.13485C21.5948 2.64885 21.3833 2.18535 21.0031 1.85122C20.8088 1.66638 20.5799 1.52197 20.3294 1.42637C20.0789 1.33077 19.8119 1.2859 19.5439 1.29435L17.0712 1.29547ZM26.0588 2.99985C26.9959 2.99985 27.7407 3.2631 28.2852 3.7851C28.8297 4.3071 29.0997 5.02147 29.0997 5.92935V10.2707H27.8813V9.29197H27.8284C27.3008 10.0952 26.6033 10.4991 25.7303 10.4991C24.9799 10.4991 24.3589 10.2707 23.8549 9.80722C23.6117 9.59197 23.4182 9.32648 23.2877 9.0291C23.1572 8.73172 23.0928 8.40955 23.0989 8.08485C23.0989 7.3581 23.3622 6.77872 23.8954 6.34447C24.4231 5.91697 25.1318 5.69985 26.0161 5.69985C26.7721 5.69985 27.3931 5.8461 27.8791 6.13297V5.8281C27.8806 5.60679 27.8349 5.38769 27.7448 5.18552C27.6548 4.98334 27.5226 4.80275 27.3571 4.65585C27.0236 4.34374 26.583 4.17175 26.1263 4.17547C25.4176 4.17547 24.8551 4.48597 24.4388 5.10697L23.3194 4.38022C23.9348 3.45997 24.8483 2.9976 26.0554 2.9976L26.0588 2.99985ZM24.4129 8.11522C24.4104 8.28193 24.4473 8.44689 24.5206 8.59664C24.5939 8.74639 24.7016 8.8767 24.8348 8.97697C25.1161 9.20535 25.4682 9.3291 25.8248 9.32235C26.3581 9.32235 26.8733 9.0996 27.2547 8.70697C27.6586 8.33235 27.8881 7.80472 27.8881 7.25347C27.4898 6.92497 26.9386 6.76072 26.2298 6.76072C25.7078 6.76072 25.2803 6.8901 24.9349 7.14772C24.5896 7.41097 24.4129 7.72822 24.4129 8.1141V8.11522ZM6.72343 0.000597654C8.23813 -0.017671 9.70287 0.541916 10.8196 1.56547L9.07355 3.2766C8.43573 2.68485 7.59332 2.36345 6.72343 2.37997C5.96431 2.38369 5.22521 2.62382 4.60886 3.06697C3.99251 3.51013 3.52954 4.1343 3.2843 4.85272C3.02662 5.59679 3.02662 6.4059 3.2843 7.14997C3.52954 7.86839 3.99251 8.49256 4.60886 8.93572C5.22521 9.37888 5.96431 9.61901 6.72343 9.62272C7.54918 9.62272 8.25905 9.41797 8.80918 9.0546C9.12567 8.84849 9.39691 8.58012 9.60637 8.26583C9.81583 7.95155 9.95913 7.59791 10.0276 7.22647H6.7223V4.91797H12.4936C12.5644 5.32185 12.5993 5.72685 12.5993 6.13635C12.5993 7.96447 11.9311 9.51135 10.7768 10.5542C9.76318 11.4688 8.37493 12.001 6.7223 12.001C5.59427 12.0067 4.48651 11.7012 3.52089 11.1181C2.55527 10.5349 1.76921 9.69674 1.24918 8.69572C0.821618 7.86153 0.598633 6.9376 0.598633 6.00022C0.598633 5.06284 0.821618 4.13891 1.24918 3.30472C1.76858 2.30464 2.55357 1.46705 3.51791 0.883964C4.48225 0.300874 5.58864 -0.00516087 6.71555 -0.000526728L6.72343 0.000597654Z" fill="white" fill-opacity="0.5"/>
</svg>
