<svg width="59" height="36" viewBox="0 0 59 36" fill="none" xmlns="http://www.w3.org/2000/svg">
<path d="M2.71741 5.77306e-05C1.21711 5.77306e-05 0 1.19413 0 2.66744V33.3327C0 34.8057 1.21729 36 2.71741 36H55.6826C57.1829 36 58.4 34.8059 58.4 33.3326V2.66738C58.4 1.1943 57.1827 0 55.6826 0H2.71735L2.71741 5.77306e-05ZM19.1497 4.33346C22.4832 4.33346 25.5448 5.47188 27.948 7.37345C25.9261 9.14932 24.418 11.4825 23.6739 14.1271H24.8401C25.5268 11.9454 26.7744 10.003 28.4189 8.46262C30.0633 10.003 31.3108 11.9454 31.9977 14.1271H33.1821C32.4277 11.4964 30.9175 9.17718 28.8971 7.41289C31.3049 5.48718 34.3785 4.33341 37.7264 4.33341C45.4522 4.33341 51.715 10.4816 51.715 18.0663C51.715 25.651 45.4522 31.7992 37.7264 31.7992C34.3228 31.7992 31.2019 30.6067 28.7766 28.623C30.9461 26.7703 32.5456 24.2865 33.277 21.461H32.1363C31.4869 23.8325 30.1796 25.9418 28.4188 27.5912C26.6581 25.9418 25.3526 23.8325 24.7031 21.461H23.6172C24.353 24.2456 25.9315 26.6946 28.0684 28.5299C25.6475 30.489 22.5389 31.6666 19.1496 31.6666C11.4239 31.6666 5.1611 25.548 5.1611 18C5.1611 10.4521 11.4239 4.33346 19.1497 4.33346ZM36.677 13.9873C34.9962 13.9873 33.361 15.4297 33.361 18.138C33.361 19.9338 34.2442 21.1188 35.9817 21.1188C36.4729 21.119 37.2555 20.9218 37.2555 20.9218L37.5147 19.3526C37.5147 19.3526 36.8004 19.7072 36.3102 19.7072C35.2774 19.7072 34.863 18.9275 34.863 18.0896C34.863 16.3898 35.7516 15.4544 36.7409 15.4544C37.4827 15.4544 38.0786 15.8665 38.0786 15.8665L38.3159 14.3402C38.3159 14.3402 37.4338 13.9873 36.6769 13.9873H36.677ZM50.808 14.1199L49.3461 14.1234L49.0322 16.0116C49.0322 16.0116 48.4827 15.2789 47.6233 15.2789C46.2872 15.2789 45.1742 16.837 45.1742 18.6288C45.1742 19.7855 45.7665 20.92 46.9809 20.92C47.8545 20.92 48.3387 20.3307 48.3387 20.3307L48.2749 20.834H49.6947L50.808 14.1199ZM8.93881 14.1396L7.77449 20.8698H9.1779L10.0649 15.7949L10.1963 20.8698H11.2L13.0725 15.7949L12.2421 20.8698H13.7331L14.8829 14.1396H12.5761L11.1398 18.2687L11.065 14.1396H8.93887L8.93881 14.1396ZM23.6009 14.5767C23.5692 14.6079 22.7523 19.2318 22.7523 19.795C22.7523 20.6288 23.2284 21.0013 23.8984 20.9952C24.3784 20.9912 24.7502 20.8729 24.9222 20.8233C24.9402 20.8185 24.9751 20.8089 24.9751 20.8089L25.1558 19.6051C25.0575 19.6051 24.9128 19.6463 24.7853 19.6463C24.2851 19.6463 24.2297 19.3851 24.2615 19.1913L24.6649 16.7353H25.4259L25.6102 15.4043H24.893L25.039 14.5767H23.6009ZM40.5643 15.2538C39.5847 15.2538 38.8342 15.5709 38.8342 15.5709L38.6261 16.807C38.6261 16.807 39.246 16.5544 40.1828 16.5544C40.7147 16.5544 41.1044 16.6141 41.1044 17.0488C41.1044 17.3128 41.057 17.4107 41.057 17.4107C41.057 17.4107 40.6364 17.3748 40.442 17.3748C39.2067 17.3748 37.9089 17.9062 37.9089 19.5048C37.9089 20.7643 38.7609 21.0526 39.2886 21.0526C40.2964 21.0526 40.731 20.3953 40.7541 20.3933L40.7066 20.9415H41.964L42.5261 16.9861C42.5263 15.3078 41.07 15.2538 40.5643 15.2538V15.2538ZM16.9761 15.261C15.993 15.261 15.2387 15.5781 15.2387 15.5781L15.0307 16.8142C15.0307 16.8142 15.6526 16.5615 16.5929 16.5615C17.1268 16.5615 17.5182 16.6215 17.5182 17.0559C17.5182 17.3199 17.4707 17.4178 17.4707 17.4178C17.4707 17.4178 17.0489 17.382 16.8539 17.382C15.6139 17.382 14.3117 17.9126 14.3117 19.5102C14.3117 20.769 15.1654 21.058 15.695 21.058C16.7065 21.058 17.1427 20.4007 17.166 20.3987L17.1185 20.9469H18.3814L18.9453 16.9933C18.9453 15.3159 17.4837 15.2609 16.9761 15.2609V15.261ZM21.4364 15.261C20.3807 15.261 19.3085 15.6793 19.3085 17.1079C19.3085 18.7267 21.0952 18.5631 21.0952 19.245C21.0952 19.7002 20.5965 19.7377 20.2119 19.7377C19.5461 19.7377 18.9475 19.5119 18.9453 19.5227L18.7537 20.7588C18.7881 20.7693 19.1589 20.9325 20.3561 20.9325C20.6775 20.9325 22.515 21.0127 22.515 19.134C22.515 17.3776 20.8141 17.7257 20.8141 17.0201C20.8141 16.6688 21.0903 16.558 21.597 16.558C21.7982 16.558 22.5734 16.6207 22.5734 16.6207L22.7523 15.372C22.7523 15.3722 22.2521 15.261 21.4365 15.261H21.4364ZM28.0356 15.261C26.5686 15.2613 25.4825 16.8097 25.4825 18.5589C25.4825 20.5779 26.8433 21.058 28.0028 21.058C29.073 21.058 29.5449 20.8233 29.5449 20.8233L29.8004 19.4457C29.8004 19.4457 28.9862 19.7968 28.251 19.7968C26.6843 19.7968 26.9589 18.6521 26.9589 18.6521H29.9245C29.9245 18.6521 30.1161 17.727 30.1161 17.3497C30.1161 16.4085 29.6376 15.261 28.0357 15.261H28.0356ZM33.3482 15.3201C32.6873 15.3201 32.1966 16.1925 32.1966 16.1925L32.328 15.3918H30.9556L30.034 20.92H31.5506C31.9801 18.5593 32.0585 16.6424 33.0836 16.9933C33.263 16.0795 33.4371 15.7265 33.6329 15.3398C33.6329 15.3398 33.5409 15.3201 33.3482 15.3201H33.3482ZM45.6359 15.3201C44.975 15.3201 44.4843 16.1925 44.4843 16.1925L44.6157 15.3918H43.2433L42.3217 20.92H43.8365C44.2662 18.5593 44.3466 16.6424 45.3713 16.9933C45.551 16.0795 45.7249 15.7265 45.9206 15.3398C45.9206 15.3398 45.8286 15.3201 45.6359 15.3201H45.6359ZM28.0283 16.5078C28.8615 16.5078 28.7091 17.431 28.7091 17.5056H27.0684C27.0684 17.4103 27.2236 16.5078 28.0284 16.5078H28.0283ZM47.8533 16.6153C48.3836 16.6151 48.6563 16.9668 48.6563 17.794C48.6563 18.5446 48.2706 19.5478 47.4719 19.5478C46.9417 19.5478 46.6926 19.118 46.6926 18.4443C46.6926 17.3426 47.206 16.6153 47.8533 16.6153H47.8533ZM40.5661 18.4962C40.7824 18.4965 40.8271 18.5172 40.8636 18.5267C40.8583 18.5259 40.8573 18.5268 40.8782 18.5303C40.9055 18.7765 40.7266 19.9312 39.8616 19.9312C39.4156 19.9312 39.3014 19.5831 39.3014 19.3776C39.3014 18.977 39.5138 18.4962 40.5661 18.4962ZM16.978 18.5016C17.2237 18.5019 17.2505 18.5289 17.2919 18.5357C17.3193 18.7818 17.1397 19.9347 16.2717 19.9347C15.8239 19.9347 15.7078 19.5883 15.7078 19.383C15.7078 18.9826 15.9215 18.5016 16.978 18.5016Z" fill="white" fill-opacity="0.5"/>
</svg>
