<svg width="54" height="36" viewBox="0 0 54 36" fill="none" xmlns="http://www.w3.org/2000/svg">
<path d="M17.873 18.2344C17.873 18.8125 17.6782 19.293 17.2886 19.6758C16.899 20.0586 16.4216 20.25 15.8563 20.25C15.4132 20.25 15.058 20.125 14.7907 19.875C14.5233 19.625 14.3896 19.2812 14.3896 18.8438C14.3896 18.2656 14.5806 17.7773 14.9625 17.3789C15.3445 16.9805 15.8181 16.7812 16.3834 16.7812C16.8112 16.7812 17.1664 16.9102 17.449 17.168C17.7316 17.4258 17.873 17.7812 17.873 18.2344ZM35.8625 14.7422C35.8625 15.3984 35.6945 15.8438 35.3584 16.0781C35.0223 16.3125 34.5181 16.4297 33.8459 16.4297L33.1125 16.4531L33.5021 13.9453C33.5327 13.7734 33.632 13.6875 33.8 13.6875H34.2126C34.5487 13.6875 34.816 13.7031 35.0146 13.7344C35.2132 13.7656 35.4042 13.8633 35.5876 14.0273C35.7709 14.1914 35.8625 14.4297 35.8625 14.7422ZM43.9063 18.2344C43.9063 18.7969 43.7115 19.2734 43.3219 19.6641C42.9323 20.0547 42.4626 20.25 41.9125 20.25C41.4695 20.25 41.1105 20.125 40.8355 19.875C40.5605 19.625 40.423 19.2812 40.423 18.8438C40.423 18.2656 40.6139 17.7773 40.9959 17.3789C41.3778 16.9805 41.8514 16.7812 42.4167 16.7812C42.8445 16.7812 43.1997 16.9102 43.4823 17.168C43.765 17.4258 43.9063 17.7812 43.9063 18.2344ZM12.5563 14.2266C12.5563 13.3047 12.2622 12.6367 11.674 12.2227C11.0858 11.8086 10.3181 11.6016 9.37088 11.6016H5.70422C5.41394 11.6016 5.25352 11.75 5.22297 12.0469L3.73338 21.6094C3.7181 21.7031 3.74102 21.7891 3.80213 21.8672C3.86324 21.9453 3.93963 21.9844 4.0313 21.9844H5.77297C6.07852 21.9844 6.24658 21.8359 6.27713 21.5391L6.68963 18.9609C6.70491 18.8359 6.75838 18.7344 6.85005 18.6562C6.94172 18.5781 7.0563 18.5273 7.1938 18.5039C7.3313 18.4805 7.46116 18.4688 7.58338 18.4688C7.7056 18.4688 7.85074 18.4766 8.0188 18.4922C8.18685 18.5078 8.2938 18.5156 8.33963 18.5156C9.65352 18.5156 10.6848 18.1367 11.4334 17.3789C12.182 16.6211 12.5563 15.5703 12.5563 14.2266ZM19.6375 21.5391L20.5771 15.4219C20.5924 15.3281 20.5695 15.2422 20.5084 15.1641C20.4473 15.0859 20.3709 15.0469 20.2792 15.0469H18.5375C18.3237 15.0469 18.1938 15.3047 18.148 15.8203C17.7355 15.1953 17.0098 14.8828 15.9709 14.8828C14.8709 14.8828 13.9351 15.3047 13.1636 16.1484C12.3921 16.9922 12.0063 17.9844 12.0063 19.125C12.0063 20.0469 12.2698 20.7812 12.7969 21.3281C13.324 21.875 14.0306 22.1484 14.9167 22.1484C15.3445 22.1484 15.7875 22.0547 16.2459 21.8672C16.7042 21.6797 17.0709 21.4297 17.3459 21.1172C17.2848 21.3047 17.2542 21.4688 17.2542 21.6094C17.2542 21.8594 17.3535 21.9844 17.5521 21.9844H19.1334C19.4237 21.9844 19.5917 21.8359 19.6375 21.5391ZM29.8813 15.375C29.8813 15.2969 29.8507 15.2227 29.7896 15.1523C29.7285 15.082 29.6598 15.0469 29.5834 15.0469H27.8188C27.6507 15.0469 27.5132 15.125 27.4063 15.2812L24.9771 18.9375L23.9688 15.4219C23.8924 15.1719 23.7244 15.0469 23.4646 15.0469H21.7459C21.6695 15.0469 21.6007 15.082 21.5396 15.1523C21.4785 15.2227 21.448 15.2969 21.448 15.375C21.448 15.4062 21.5969 15.8672 21.8948 16.7578C22.1928 17.6484 22.5136 18.6094 22.8573 19.6406C23.2011 20.6719 23.3806 21.2188 23.3959 21.2812C22.1431 23.0312 21.5167 23.9688 21.5167 24.0938C21.5167 24.2969 21.616 24.3984 21.8146 24.3984H23.5792C23.7473 24.3984 23.8848 24.3203 23.9917 24.1641L29.8355 15.5391C29.866 15.5078 29.8813 15.4531 29.8813 15.375ZM38.5896 14.2266C38.5896 13.3047 38.2955 12.6367 37.7073 12.2227C37.1191 11.8086 36.3514 11.6016 35.4042 11.6016H31.7605C31.4549 11.6016 31.2869 11.75 31.2563 12.0469L29.7667 21.6094C29.7514 21.7031 29.7744 21.7891 29.8355 21.8672C29.8966 21.9453 29.973 21.9844 30.0646 21.9844H31.9438C32.1271 21.9844 32.2494 21.8828 32.3105 21.6797L32.723 18.9609C32.7382 18.8359 32.7917 18.7344 32.8834 18.6562C32.975 18.5781 33.0896 18.5273 33.2271 18.5039C33.3646 18.4805 33.4945 18.4688 33.6167 18.4688C33.7389 18.4688 33.8841 18.4766 34.0521 18.4922C34.2202 18.5078 34.3271 18.5156 34.373 18.5156C35.6869 18.5156 36.7181 18.1367 37.4667 17.3789C38.2153 16.6211 38.5896 15.5703 38.5896 14.2266ZM45.6709 21.5391L46.6105 15.4219C46.6257 15.3281 46.6028 15.2422 46.5417 15.1641C46.4806 15.0859 46.4042 15.0469 46.3125 15.0469H44.5709C44.357 15.0469 44.2271 15.3047 44.1813 15.8203C43.7841 15.1953 43.0584 14.8828 42.0042 14.8828C40.9042 14.8828 39.9685 15.3047 39.1969 16.1484C38.4254 16.9922 38.0396 17.9844 38.0396 19.125C38.0396 20.0469 38.3032 20.7812 38.8303 21.3281C39.3573 21.875 40.0639 22.1484 40.9501 22.1484C41.3931 22.1484 41.8438 22.0547 42.3021 21.8672C42.7605 21.6797 43.1195 21.4297 43.3792 21.1172C43.3792 21.1328 43.3639 21.2031 43.3334 21.3281C43.3028 21.4531 43.2875 21.5469 43.2875 21.6094C43.2875 21.8594 43.3869 21.9844 43.5855 21.9844H45.1667C45.457 21.9844 45.625 21.8359 45.6709 21.5391ZM50.6667 11.9531V11.9297C50.6667 11.7109 50.5674 11.6016 50.3688 11.6016H48.673C48.5049 11.6016 48.4056 11.6875 48.375 11.8594L46.8855 21.6094L46.8625 21.6562C46.8625 21.7344 46.8931 21.8086 46.9542 21.8789C47.0153 21.9492 47.0917 21.9844 47.1834 21.9844H48.6959C48.9862 21.9844 49.1466 21.8359 49.1771 21.5391L50.6667 11.9531ZM9.78338 15.0938C9.70699 15.6406 9.50838 16 9.18755 16.1719C8.86672 16.3438 8.40838 16.4297 7.81255 16.4297L7.0563 16.4531L7.44588 13.9453C7.47644 13.7734 7.57574 13.6875 7.7438 13.6875H8.17922C8.79033 13.6875 9.23338 13.7773 9.50838 13.957C9.78338 14.1367 9.87505 14.5156 9.78338 15.0938ZM53.6001 3V33C53.6001 33.8125 53.3098 34.5156 52.7292 35.1094C52.1487 35.7031 51.4612 36 50.6667 36H3.73338C2.93894 36 2.25144 35.7031 1.67088 35.1094C1.09033 34.5156 0.800049 33.8125 0.800049 33V3C0.800049 2.1875 1.09033 1.48438 1.67088 0.890625C2.25144 0.296875 2.93894 0 3.73338 0H50.6667C51.4612 0 52.1487 0.296875 52.7292 0.890625C53.3098 1.48438 53.6001 2.1875 53.6001 3Z" fill="white" fill-opacity="0.5"/>
</svg>
