<svg width="17" height="18" viewBox="0 0 17 18" fill="none" xmlns="http://www.w3.org/2000/svg">
<path d="M6.98016 14.0966C3.11423 14.0966 0 10.952 0 7.04831C0 3.14463 3.11423 0 6.98016 0C10.8461 0 13.9603 3.14463 13.9603 7.04831C13.9603 10.952 10.8461 14.0966 6.98016 14.0966ZM6.98016 1.08435C3.70486 1.08435 1.07387 3.74102 1.07387 7.04831C1.07387 10.3556 3.70486 13.0123 6.98016 13.0123C10.2555 13.0123 12.8865 10.3556 12.8865 7.04831C12.8865 3.74102 10.2555 1.08435 6.98016 1.08435Z" fill="white"/>
<path d="M12.1789 11.5312L17.0006 16.4L16.2414 17.1666L11.4197 12.2979L12.1789 11.5312Z" fill="white"/>
</svg>
