<svg width="42" height="32" viewBox="0 0 42 32" fill="none" xmlns="http://www.w3.org/2000/svg">
<path d="M41.7316 4.52043C41.6423 3.95264 41.3824 3.42544 40.9865 3.00872C40.5906 2.59201 40.0774 2.30547 39.515 2.1871L32.6666 0.682098C31.9322 0.521929 31.172 0.521327 30.4374 0.680335C29.7027 0.839342 29.0108 1.15425 28.4083 1.60376L8.16665 16.3504L2.49665 16.1171C2.04085 16.1008 1.5915 16.2285 1.21242 16.4821C0.833333 16.7357 0.543795 17.1023 0.384926 17.5298C0.226056 17.9574 0.205932 18.4241 0.327414 18.8637C0.448895 19.3033 0.705803 19.6935 1.06165 19.9788L6.89498 24.5638C7.59498 25.4154 8.06165 25.2521 19.6467 18.9404L20.7316 29.9304C20.7497 30.2302 20.8525 30.5187 21.028 30.7624C21.2036 31.0061 21.4447 31.195 21.7233 31.3071C21.9238 31.3863 22.1378 31.4259 22.3533 31.4238C22.7872 31.4105 23.2017 31.2406 23.52 30.9454L26.3083 28.4021C26.586 28.1449 26.774 27.8055 26.845 27.4338L29.4 13.5504C33.565 11.2171 37.5083 9.02376 40.32 7.42543C40.823 7.14247 41.2277 6.71272 41.48 6.19362C41.7322 5.67451 41.82 5.09078 41.7316 4.52043ZM39.165 5.39543C36.2483 7.0521 32.165 9.37376 27.7783 11.7771L27.3 12.0454L24.5816 26.8271L22.8666 28.3904L21.5833 15.2071L20.0316 16.0004C11.6666 20.6671 8.87832 22.0204 7.92165 22.4404L2.90498 18.4621L8.83165 18.7188L29.8316 3.4821C30.1617 3.23532 30.5402 3.061 30.9423 2.97053C31.3444 2.88006 31.761 2.87548 32.165 2.9571L38.99 4.4271C39.0951 4.44617 39.1915 4.49832 39.2649 4.57597C39.3384 4.65362 39.3851 4.7527 39.3983 4.85876C39.4223 4.96142 39.4126 5.06908 39.3706 5.16576C39.3285 5.26244 39.2564 5.34298 39.165 5.39543Z" fill="black"/>
</svg>
