<svg width="19" height="18" viewBox="0 0 19 18" fill="none" xmlns="http://www.w3.org/2000/svg">
<path d="M9.5 10.4265C14.7465 10.4265 19 12.2198 19 14.4319V17.2928H0V14.4319C0 12.2198 4.25347 10.4265 9.5 10.4265ZM17.7333 14.4319C17.7333 12.8526 14.0473 11.5709 9.5 11.5709C4.95267 11.5709 1.26667 12.8526 1.26667 14.4319V16.1485H17.7333V14.4319ZM9.5 0.126953C10.6758 0.126953 11.8034 0.548947 12.6348 1.3001C13.4663 2.05125 13.9333 3.07004 13.9333 4.13233C13.9333 5.19462 13.4663 6.2134 12.6348 6.96456C11.8034 7.71571 10.6758 8.1377 9.5 8.1377C8.32421 8.1377 7.19657 7.71571 6.36516 6.96456C5.53375 6.2134 5.06667 5.19462 5.06667 4.13233C5.06667 3.07004 5.53375 2.05125 6.36516 1.3001C7.19657 0.548947 8.32421 0.126953 9.5 0.126953ZM9.5 1.27135C8.66015 1.27135 7.85469 1.57277 7.26083 2.10931C6.66696 2.64585 6.33333 3.37355 6.33333 4.13233C6.33333 4.89111 6.66696 5.61881 7.26083 6.15535C7.85469 6.69189 8.66015 6.99331 9.5 6.99331C10.3399 6.99331 11.1453 6.69189 11.7392 6.15535C12.333 5.61881 12.6667 4.89111 12.6667 4.13233C12.6667 3.37355 12.333 2.64585 11.7392 2.10931C11.1453 1.57277 10.3399 1.27135 9.5 1.27135Z" fill="white"/>
</svg>
