<svg width="57" height="36" viewBox="0 0 57 36" fill="none" xmlns="http://www.w3.org/2000/svg">
<path d="M2.272 0C1.01746 0 0 1.02657 0 2.29299V33.707C0 34.9734 1.01797 36 2.272 36H54.528C55.7825 36 56.8 34.9734 56.8 33.707V2.29299C56.8 1.02663 55.782 0 54.528 0H2.272ZM33.9238 10.7287C35.3062 10.7287 36.4141 11.0369 37.1206 11.3234L36.6378 14.3885L36.3183 14.2255C35.6601 13.9389 34.8148 13.6631 33.6487 13.6827C32.2527 13.6827 31.6074 14.3111 31.6074 14.8991C31.5993 15.5616 32.3615 15.9986 33.6078 16.6529C35.665 17.6624 36.6157 18.8864 36.6023 20.4954C36.5746 23.4314 34.1415 25.3286 30.3933 25.3286C28.7943 25.3109 27.2537 24.9692 26.4209 24.5744L26.9214 21.4072L27.3812 21.633C28.5522 22.161 29.3105 22.3746 30.7377 22.3746C31.7625 22.3746 32.8625 21.9415 32.8712 20.9934C32.8779 20.3743 32.4114 19.9329 31.0234 19.2396C29.6709 18.563 27.8778 17.4295 27.8977 15.3971C27.9188 12.6478 30.4005 10.7287 33.9238 10.7287ZM5.02322 11.1783H10.7796C11.5547 11.2079 12.1805 11.4598 12.3966 12.3087L13.6373 18.7721V18.7757L14.0101 20.7122L17.505 11.1783H21.2858L15.6661 25.1334L11.8889 25.1369L8.8821 13.8762C10.6712 14.8327 12.1943 15.9395 13.0764 17.4626C12.849 16.9806 12.5493 16.4366 12.1659 15.9005C11.7193 15.2761 10.7549 14.4699 10.3518 14.127C8.94714 12.9319 7.03951 11.9667 4.97886 11.456L5.02322 11.1783ZM22.7892 11.1945H26.4866L24.1737 25.128H20.4764L22.7892 11.1945ZM43.6721 11.1945H46.4731L49.4054 25.128H46.0435C46.0435 25.128 45.71 23.5273 45.6015 23.0392C45.0731 23.0392 41.3775 23.0339 40.9617 23.0339C40.821 23.4111 40.1984 25.1279 40.1984 25.1279H36.3946L41.7746 12.3517C42.1555 11.4438 42.8048 11.1945 43.6721 11.1945ZM43.9472 14.9421C43.7653 15.4603 43.4485 16.2973 43.4697 16.2605C43.4697 16.2605 42.3316 19.324 42.0338 20.1192L45.0246 20.1174C44.8805 19.4265 44.1904 16.1317 44.1904 16.1317L43.9472 14.9421Z" fill="white" fill-opacity="0.5"/>
</svg>
