<svg width="30" height="39" viewBox="0 0 30 39" fill="none" xmlns="http://www.w3.org/2000/svg">
<path d="M15.1531 7.43364C15.1188 7.36076 15.0637 7.29902 14.9944 7.25574C14.9251 7.21246 14.8446 7.18945 14.7623 7.18945C14.68 7.18945 14.5994 7.21246 14.5301 7.25574C14.4609 7.29902 14.4058 7.36076 14.3714 7.43364L12.6112 11.1553C12.5803 11.2201 12.5329 11.2761 12.4735 11.3181C12.4142 11.36 12.3448 11.3865 12.272 11.3949L8.09527 11.879C8.01383 11.8886 7.9369 11.9207 7.87357 11.9716C7.81023 12.0224 7.76312 12.0898 7.7378 12.1659C7.71248 12.2419 7.71 12.3235 7.73065 12.4009C7.7513 12.4783 7.79422 12.5483 7.85435 12.6027L10.942 15.3849C10.9963 15.4337 11.0368 15.4952 11.0596 15.5636C11.0824 15.632 11.0868 15.705 11.0723 15.7756L10.2512 19.7943C10.1799 20.1466 10.5634 20.4174 10.883 20.2425L14.5533 18.2415C14.6172 18.2068 14.6891 18.1887 14.7623 18.1887C14.8354 18.1887 14.9073 18.2068 14.9712 18.2415L18.6415 20.2425C18.9611 20.4174 19.3446 20.1466 19.2733 19.7943L18.4547 15.7756C18.4402 15.705 18.4446 15.632 18.4674 15.5636C18.4902 15.4952 18.5307 15.4337 18.585 15.3849L21.6702 12.6027C21.7303 12.5483 21.7732 12.4783 21.7939 12.4009C21.8145 12.3235 21.8121 12.2419 21.7867 12.1659C21.7614 12.0898 21.7143 12.0224 21.651 11.9716C21.5876 11.9207 21.5107 11.8886 21.4293 11.879L17.255 11.3949C17.1818 11.3869 17.1119 11.3606 17.052 11.3186C16.9922 11.2767 16.9444 11.2204 16.9133 11.1553L15.1531 7.43364Z" fill="black"/>
<path d="M29.5 14.3789C29.5023 16.4022 29.0654 18.4031 28.218 20.2501C27.3706 22.0972 26.1319 23.7485 24.5833 25.0957V37.1449C24.5833 37.3548 24.5267 37.5609 24.4192 37.7427C24.3118 37.9245 24.1572 38.0756 23.971 38.181C23.7848 38.2863 23.5736 38.3421 23.3583 38.3428C23.1431 38.3435 22.9314 38.2891 22.7445 38.185L14.75 33.7324L6.7555 38.185C6.56859 38.2891 6.35693 38.3435 6.14168 38.3428C5.92643 38.3421 5.71515 38.2863 5.52897 38.181C5.34279 38.0756 5.18824 37.9245 5.08079 37.7427C4.97333 37.5609 4.91674 37.3548 4.91667 37.1449V25.0957C3.08279 23.4967 1.68836 21.476 0.860348 19.2174C0.0323385 16.9589 -0.202943 14.5343 0.175928 12.1645C0.554799 9.79461 1.53579 7.5548 3.02956 5.64898C4.52334 3.74315 6.48244 2.23187 8.72849 1.25273C10.9745 0.27359 13.4362 -0.142291 15.8892 0.042954C18.3423 0.228199 20.7088 1.00869 22.7734 2.31334C24.8379 3.618 26.5349 5.40538 27.7098 7.51273C28.8846 9.62008 29.5 11.9804 29.5 14.3789ZM14.75 28.7575C12.1606 28.7611 9.61627 28.0972 7.375 26.8331V35.0816L14.1403 31.312C14.326 31.2086 14.5362 31.1543 14.75 31.1543C14.9638 31.1543 15.174 31.2086 15.3597 31.312L22.125 35.084V26.8355C19.8835 28.0989 17.3392 28.762 14.75 28.7575ZM14.75 26.361C18.0099 26.361 21.1364 25.0986 23.4415 22.8515C25.7466 20.6045 27.0417 17.5568 27.0417 14.3789C27.0417 11.201 25.7466 8.15333 23.4415 5.90624C21.1364 3.65916 18.0099 2.39676 14.75 2.39676C11.49 2.39676 8.36361 3.65916 6.05848 5.90624C3.75335 8.15333 2.45834 11.201 2.45834 14.3789C2.45834 17.5568 3.75335 20.6045 6.05848 22.8515C8.36361 25.0986 11.49 26.361 14.75 26.361Z" fill="black"/>
</svg>
